<svg width="21" height="21" viewBox="0 0 21 21" fill="none" xmlns="http://www.w3.org/2000/svg">
<path d="M17.8879 1H3.11009C1.94415 1 0.998978 1.94518 0.998978 3.11111V17.8889C0.998978 19.0548 1.94415 20 3.11009 20H17.8879C19.0538 20 19.999 19.0548 19.999 17.8889V3.11111C19.999 1.94518 19.0538 1 17.8879 1Z" stroke="#1DA1F2" stroke-width="2" stroke-linecap="round" stroke-linejoin="round"/>
<path d="M9.72712 13.1618C9.51208 13.4372 9.21402 13.6457 8.83293 13.7874C8.45185 13.9291 8.01905 14 7.53453 14C7.03641 14 6.59544 13.889 6.21163 13.6671C5.82783 13.4452 5.53113 13.1283 5.32154 12.7166C5.11466 12.3021 5.00714 11.8195 4.99898 11.2687V10.8115C4.99898 9.92914 5.21402 9.24064 5.6441 8.74599C6.07417 8.24866 6.67438 8 7.44471 8C8.10616 8 8.63151 8.16043 9.02075 8.48128C9.41 8.80214 9.64409 9.26471 9.72303 9.86898H8.71044C8.59612 9.16578 8.18101 8.81417 7.46512 8.81417C7.00238 8.81417 6.64988 8.97861 6.40762 9.30749C6.16808 9.63369 6.04423 10.1136 6.03607 10.7473V11.1965C6.03607 11.8275 6.1708 12.3182 6.44028 12.6684C6.71249 13.016 7.08948 13.1898 7.57128 13.1898C8.09935 13.1898 8.47499 13.0722 8.6982 12.8369V11.6939H7.47329V10.9238H9.72712V13.1618Z" fill="#1DA1F2"/>
<path d="M11.9524 13.9198H10.9234V8.08021H11.9524V13.9198Z" fill="#1DA1F2"/>
<path d="M16.6478 11.4452H14.2552V13.9198H13.2222V8.08021H16.999V8.8984H14.2552V10.635H16.6478V11.4452Z" fill="#1DA1F2"/>
<path d="M9.72712 13.1618C9.51208 13.4372 9.21402 13.6457 8.83293 13.7874C8.45185 13.9291 8.01905 14 7.53453 14C7.03641 14 6.59544 13.889 6.21163 13.6671C5.82783 13.4452 5.53113 13.1283 5.32154 12.7166C5.11466 12.3021 5.00714 11.8195 4.99898 11.2687V10.8115C4.99898 9.92914 5.21402 9.24064 5.6441 8.74599C6.07417 8.24866 6.67438 8 7.44471 8C8.10616 8 8.63151 8.16043 9.02075 8.48128C9.41 8.80214 9.64409 9.26471 9.72303 9.86898H8.71044C8.59612 9.16578 8.18101 8.81417 7.46512 8.81417C7.00238 8.81417 6.64988 8.97861 6.40762 9.30749C6.16808 9.63369 6.04423 10.1136 6.03607 10.7473V11.1965C6.03607 11.8275 6.1708 12.3182 6.44028 12.6684C6.71249 13.016 7.08948 13.1898 7.57128 13.1898C8.09935 13.1898 8.47499 13.0722 8.6982 12.8369V11.6939H7.47329V10.9238H9.72712V13.1618Z" stroke="#1DA1F2" stroke-width="0.2"/>
<path d="M11.9524 13.9198H10.9234V8.08021H11.9524V13.9198Z" stroke="#1DA1F2" stroke-width="0.2"/>
<path d="M16.6478 11.4452H14.2552V13.9198H13.2222V8.08021H16.999V8.8984H14.2552V10.635H16.6478V11.4452Z" stroke="#1DA1F2" stroke-width="0.2"/>
</svg>
